<svg width="32" height="32" viewBox="0 0 32 32" fill="none" xmlns="http://www.w3.org/2000/svg">
  <defs>
    <linearGradient id="shoeGradient" x1="0%" y1="0%" x2="100%" y2="100%">
      <stop offset="0%" stopColor="#e56a36"/>
      <stop offset="100%" stopColor="#ff8a4c"/>
    </linearGradient>
  </defs>
  <rect width="32" height="32" rx="8" fill="url(#shoeGradient)"/>
  <path d="M8 14 L8 22 C8 24 10 25 12 25 L14 25 L15 23 L17 23 L18 25 L20 25 C22 25 24 24 24 22 L24 14 C24 12 22 10 20 9 L18 8.5 L14 8.5 L12 9 C10 10 8 12 8 14 Z" fill="white" opacity="0.9"/>
  <path d="M10 16 L12 15 L18 15 L20 16 L20 20 L19 21 L13 21 L12 20 Z" fill="white" opacity="0.6"/>
  <circle cx="16" cy="18" r="1.5" fill="white" opacity="0.4"/>
</svg>
